<?xml version="1.0" standalone="no"?><!DOCTYPE svg PUBLIC "-//W3C//DTD SVG 1.1//EN" "http://www.w3.org/Graphics/SVG/1.1/DTD/svg11.dtd"><svg t="1753169451947" class="icon" viewBox="0 0 1026 1024" version="1.1" xmlns="http://www.w3.org/2000/svg" p-id="15054" xmlns:xlink="http://www.w3.org/1999/xlink" width="128.25" height="128"><path d="M819.729891 399.627059l22.074369-21.959994V131.989638H131.993219v760.021651h263.519922l28.936866-103.85247" fill="#1296db" opacity=".3" p-id="15055"></path><path d="M467.34062 741.836958h-0.114375l313.501783-305.83866" fill="#1296db" opacity=".3" p-id="15056"></path><path d="M284.111924 892.011289h-100.764346c-9.607497-23.218118-28.021867-41.746863-51.354359-51.239985V183.229622c23.789993-9.149997 42.089988-29.279991 51.354359-51.239984h654.224808c14.754371 34.76999 49.52436 58.559983 87.954349 58.559982 52.612485 0 95.274347-42.661862 95.274347-95.274347S978.139219 0.000926 925.526735 0.000926c-40.374363 0-75.144353 23.789993-87.954349 58.559983h-654.224808c-15.097496-35.341865-49.638735-58.331233-88.068724-58.559983C43.009495-0.227823 0.347632 41.862164 0.004507 94.131524v1.258124c0 40.259988 23.789993 75.029978 58.674358 87.839974V840.771304A93.89041 93.89041 0 0 0 0.004507 928.725653c0 53.184359 42.204363 95.274347 95.388722 95.274347 40.374363 0 75.144353-23.789993 87.954349-58.559983h100.764346c20.244369 0 36.599989-16.35562 36.599989-36.599989 0-20.358744-16.469995-36.828739-36.599989-36.828739z" fill="#1296db" p-id="15057"></path><path d="M425.822507 787.24382l-28.822491 103.738094-13.496247 48.151861h0.114375c-3.659999 12.809996 9.149997 25.619992 21.959994 22.074368l152.118705-42.089987-28.136242-28.136242-103.738094-103.738094zM1014.052959 400.770808L946.228604 332.946453c-16.469995-16.469995-44.034362-14.639996-62.334357 1.83L841.80426 376.980815l-21.959994 21.959994L841.80426 421.015178l106.254343 106.254343 64.164356-64.049981c18.299995-18.41437 18.299995-45.978736 1.83-62.448732zM783.129902 435.540798L469.628119 741.379458h0.114375l124.668713 131.988711L841.80426 631.80824l69.539979-68.053105L841.80426 494.215156z" fill="#1296db" p-id="15058"></path></svg>