<?xml version="1.0" standalone="no"?><!DOCTYPE svg PUBLIC "-//W3C//DTD SVG 1.1//EN" "http://www.w3.org/Graphics/SVG/1.1/DTD/svg11.dtd"><svg t="1740453765942" class="icon" viewBox="0 0 1024 1024" version="1.1" xmlns="http://www.w3.org/2000/svg" p-id="134810" xmlns:xlink="http://www.w3.org/1999/xlink" width="128" height="128"><path d="M176 720v128h128v64h-192v-192h64z m736 0v192h-192v-64h128v-128h64zM256 348.224l256-128 256 128v311.552l-256 128-256-128V348.224z m64 71.552v200.448l160 80V499.776L320 419.776z m384 0l-160 80v200.448l160-80V419.776z m-192-128L359.616 368 512 444.16l152.384-76.16L512 291.776zM304 112v64h-128v128h-64v-192h192z m608 0v192h-64v-128h-128v-64h192z" fill="#f4ea2a" p-id="134811"></path></svg>