<?xml version="1.0" standalone="no"?><!DOCTYPE svg PUBLIC "-//W3C//DTD SVG 1.1//EN" "http://www.w3.org/Graphics/SVG/1.1/DTD/svg11.dtd"><svg t="1751527972915" class="icon" viewBox="0 0 1024 1024" version="1.1" xmlns="http://www.w3.org/2000/svg" p-id="125875" xmlns:xlink="http://www.w3.org/1999/xlink" width="128" height="128"><path d="M602.026667 85.333333a26.154667 26.154667 0 0 1 26.368 25.728v53.333334a41.514667 41.514667 0 0 0 24.405333 35.498666c23.04 9.557333 44.928 21.888 65.109333 36.650667 12.928 8.789333 29.610667 9.941333 43.648 2.986667l47.445334-26.794667a26.837333 26.837333 0 0 1 36.096 9.386667l90.026666 152.448a25.514667 25.514667 0 0 1-9.642666 35.242666l-47.488 26.794667a40.789333 40.789333 0 0 0-19.072 38.357333c1.578667 12.245333 2.346667 24.618667 2.304 36.949334 0 12.245333-0.768 24.533333-2.389334 36.693333-1.450667 15.36 5.973333 30.208 19.072 38.4l47.445334 26.709333a25.514667 25.514667 0 0 1 9.6 35.242667l-89.941334 152.405333a26.794667 26.794667 0 0 1-36.053333 9.472l-47.488-26.837333a43.264 43.264 0 0 0-43.733333 2.986667 312.149333 312.149333 0 0 1-65.024 36.608 41.472 41.472 0 0 0-24.362667 35.498666v53.845334a26.154667 26.154667 0 0 1-26.368 25.728H421.802667a26.197333 26.197333 0 0 1-26.282667-25.813334V859.306667a41.514667 41.514667 0 0 0-24.490667-35.584 315.989333 315.989333 0 0 1-65.066666-36.522667 43.178667 43.178667 0 0 0-43.648-2.986667l-47.36 26.837334a26.88 26.88 0 0 1-36.053334-9.514667l-90.069333-152.448a25.514667 25.514667 0 0 1 9.642667-35.2l47.488-26.709333a40.789333 40.789333 0 0 0 19.029333-38.4 295.424 295.424 0 0 1 0-73.514667 40.789333 40.789333 0 0 0-19.114667-38.4l-47.36-26.709333a25.557333 25.557333 0 0 1-9.685333-35.242667l90.026667-152.362667a26.794667 26.794667 0 0 1 36.010666-9.472l47.445334 26.709334c14.037333 6.997333 30.72 5.888 43.690666-2.944a315.349333 315.349333 0 0 1 65.066667-36.565334 41.514667 41.514667 0 0 0 24.448-35.584V111.061333A26.154667 26.154667 0 0 1 421.845333 85.333333z m-95.445334 178.304c-137.813333 0-249.514667 110.762667-249.514666 247.338667l0.042666 5.632c3.114667 136.533333 117.376 244.736 255.189334 241.621333l5.674666 0.085334c137.813333 0 249.514667-110.762667 249.514667-247.338667l-0.042667-5.632c-3.114667-136.533333-117.376-244.736-255.189333-241.664a260.608 260.608 0 0 0-5.674667-0.042667z m-160.853333 141.013334L290.133333 510.976l55.552 106.325333h55.509334l-55.509334-106.325333 55.509334-106.325333H345.728z m82.986667 212.650666h55.509333l111.701333-212.650666h-55.552l-111.658666 212.650666z m194.645333-212.650666l55.552 106.325333-55.552 106.325333h55.552l55.509333-106.325333-55.509333-106.325333H623.36z" fill="#e6e6e6" p-id="125876"></path></svg>