<?xml version="1.0" standalone="no"?><!DOCTYPE svg PUBLIC "-//W3C//DTD SVG 1.1//EN" "http://www.w3.org/Graphics/SVG/1.1/DTD/svg11.dtd"><svg t="1740634648890" class="icon" viewBox="0 0 1024 1024" version="1.1" xmlns="http://www.w3.org/2000/svg" p-id="2425" xmlns:xlink="http://www.w3.org/1999/xlink" width="128" height="128"><path d="M512 1024c-21.333333 0-38.4-12.8-42.666667-34.133333l-85.333333-341.333334H170.666667c-25.6 0-42.666667-17.066667-42.666667-42.666666 0-64 34.133333-128 98.133333-179.2 29.866667-29.866667 55.466667-64 68.266667-102.4l8.533333-21.333334c12.8-46.933333 12.8-98.133333-4.266666-145.066666l-38.4-98.133334C256 42.666667 256 29.866667 264.533333 17.066667c8.533333-8.533333 21.333333-17.066667 34.133334-17.066667h426.666666c12.8 0 25.6 8.533333 34.133334 17.066667 8.533333 12.8 8.533333 25.6 4.266666 42.666666L725.333333 162.133333c-17.066667 46.933333-17.066667 93.866667-4.266666 140.8l4.266666 17.066667c12.8 38.4 38.4 76.8 72.533334 102.4 64 51.2 98.133333 115.2 98.133333 179.2 0 25.6-17.066667 42.666667-42.666667 42.666667h-213.333333l-85.333333 341.333333c-4.266667 25.6-21.333333 38.4-42.666667 38.4zM221.866667 563.2h196.266666c21.333333 0 38.4 12.8 42.666667 34.133333l51.2 209.066667 51.2-209.066667c4.266667-17.066667 21.333333-34.133333 42.666667-34.133333h196.266666c-12.8-29.866667-38.4-55.466667-59.733333-72.533333-46.933333-38.4-81.066667-89.6-98.133333-145.066667l-4.266667-17.066667c-21.333333-64-17.066667-132.266667 4.266667-196.266666l17.066666-46.933334h-298.666666l17.066666 42.666667c21.333333 64 25.6 136.533333 4.266667 200.533333l-8.533333 21.333334c-17.066667 55.466667-51.2 102.4-98.133334 140.8-21.333333 17.066667-42.666667 42.666667-55.466666 72.533333z" p-id="2426" fill="#2c2c2c"></path></svg>