<?xml version="1.0" standalone="no"?><!DOCTYPE svg PUBLIC "-//W3C//DTD SVG 1.1//EN" "http://www.w3.org/Graphics/SVG/1.1/DTD/svg11.dtd"><svg t="1750410566720" class="icon" viewBox="0 0 1024 1024" version="1.1" xmlns="http://www.w3.org/2000/svg" p-id="26154" xmlns:xlink="http://www.w3.org/1999/xlink" width="128" height="128"><path d="M877.714 0H146.286A146.286 146.286 0 0 0 0 146.286v731.428A146.286 146.286 0 0 0 146.286 1024h731.428A146.286 146.286 0 0 0 1024 877.714V146.286A146.286 146.286 0 0 0 877.714 0z m73.143 877.714a73.143 73.143 0 0 1-73.143 73.143H146.286a73.143 73.143 0 0 1-73.143-73.143V146.286a73.143 73.143 0 0 1 73.143-73.143h731.428a73.143 73.143 0 0 1 73.143 73.143z" p-id="26155" fill="#999999"></path><path d="M761.417 282.331L416.183 628.297l-192.366-189.44a58.514 58.514 0 0 0-77.531 0 58.514 58.514 0 0 0 0 73.143l230.4 230.4a90.697 90.697 0 0 0 38.765 13.166 67.291 67.291 0 0 0 38.035-13.166l384-384a47.543 47.543 0 0 0 0-76.8 58.514 58.514 0 0 0-76.069 0.731z" p-id="26156" fill="#999999"></path></svg>