<?xml version="1.0" standalone="no"?><!DOCTYPE svg PUBLIC "-//W3C//DTD SVG 1.1//EN" "http://www.w3.org/Graphics/SVG/1.1/DTD/svg11.dtd"><svg t="1751530525988" class="icon" viewBox="0 0 1024 1024" version="1.1" xmlns="http://www.w3.org/2000/svg" p-id="180242" xmlns:xlink="http://www.w3.org/1999/xlink" width="128" height="128"><path d="M254.46 953.214H63.98V67.885h190.48v64.733H144.082v756.33h110.376v64.266z m190.946-281.758c-7.766-22.974-11.644-47.503-11.644-73.584 0-20.49 4.66-41.215 13.97-62.171 9.317-20.956 33.066-49.904 71.258-86.858 39.12-36.945 63.104-64.734 71.95-83.363 8.85-18.63 13.273-36.325 13.273-53.09 0-29.806-10.56-53.325-31.667-70.555-21.118-17.236-47.97-25.85-80.57-25.85-56.815 0-106.493 22.354-149.03 67.065v-95.474c51.849-32.285 105.719-48.436 161.606-48.436 57.12 0 102.993 14.437 137.616 43.311 34.617 28.874 51.931 68.308 51.931 118.296 0 23.911-5.124 48.2-15.37 72.882-10.244 24.687-36.954 57.518-80.103 98.502-32.6 30.734-54.49 54.803-65.667 72.185-11.177 17.392-16.769 36.174-16.769 56.355 0 22.664 5.43 46.266 16.303 70.786h-87.087z m-11.644 152.288c0-16.14 5.895-30.037 17.696-41.681 11.796-11.64 25.924-17.46 42.383-17.46 16.45 0 30.578 5.82 42.379 17.46 11.795 11.644 17.697 25.542 17.697 41.681 0 15.533-5.822 29.11-17.466 40.754-11.64 11.644-25.075 17.461-40.283 17.461-18.629 0-33.69-5.9-45.176-17.696-11.487-11.797-17.23-25.3-17.23-40.519z m526.258 129.47H769.074v-64.267h110.843V132.618H769.074V67.885H960.02v885.329z" fill="#e6e6e6" p-id="180243"></path></svg>