<?xml version="1.0" standalone="no"?><!DOCTYPE svg PUBLIC "-//W3C//DTD SVG 1.1//EN" "http://www.w3.org/Graphics/SVG/1.1/DTD/svg11.dtd"><svg t="1750404968920" class="icon" viewBox="0 0 1024 1024" version="1.1" xmlns="http://www.w3.org/2000/svg" p-id="4837" xmlns:xlink="http://www.w3.org/1999/xlink" width="128" height="128"><path d="M512 178c45.1 0 88.8 8.8 130 26.2 39.8 16.8 75.5 40.9 106.2 71.6 30.7 30.7 54.8 66.4 71.6 106.2 17.4 41.1 26.2 84.9 26.2 130s-8.8 88.8-26.2 130c-16.8 39.8-40.9 75.5-71.6 106.2-30.7 30.7-66.4 54.8-106.2 71.6-41.1 17.4-84.9 26.2-130 26.2s-88.8-8.8-130-26.2c-39.8-16.8-75.5-40.9-106.2-71.6-30.7-30.7-54.8-66.4-71.6-106.2-17.4-41.1-26.2-84.9-26.2-130s8.8-88.8 26.2-130c16.8-39.8 40.9-75.5 71.6-106.2 30.7-30.7 66.4-54.8 106.2-71.6 41.2-17.4 84.9-26.2 130-26.2m0-50c-212.1 0-384 171.9-384 384s171.9 384 384 384 384-171.9 384-384-171.9-384-384-384z" fill="#999999" p-id="4838"></path><path d="M271.4 778.1c-6.4 0-12.8-2.4-17.7-7.3-9.8-9.8-9.8-25.6 0-35.4l480.8-480.8c9.8-9.8 25.6-9.8 35.4 0 9.8 9.8 9.8 25.6 0 35.4L289.1 770.8c-4.9 4.9-11.3 7.3-17.7 7.3z" fill="#999999" p-id="4839"></path></svg>