<?xml version="1.0" standalone="no"?><!DOCTYPE svg PUBLIC "-//W3C//DTD SVG 1.1//EN" "http://www.w3.org/Graphics/SVG/1.1/DTD/svg11.dtd"><svg t="1751527294390" class="icon" viewBox="0 0 1024 1024" version="1.1" xmlns="http://www.w3.org/2000/svg" p-id="103836" xmlns:xlink="http://www.w3.org/1999/xlink" width="128" height="128"><path d="M923.744 776.817778a19.171556 19.171556 0 0 0 19.100444-19.249778 19.171556 19.171556 0 0 0-19.100444-19.242667 19.171556 19.171556 0 0 0-19.100444 19.242667 19.171556 19.171556 0 0 0 19.100444 19.242667zM739.978667 892.828444a19.171556 19.171556 0 0 0 19.100444-19.242666 19.171556 19.171556 0 0 0-19.100444-19.242667 19.171556 19.171556 0 0 0-19.100445 19.242667 19.171556 19.171556 0 0 0 19.100445 19.242666zM517.770667 1024a19.171556 19.171556 0 0 0 19.100444-19.242667 19.171556 19.171556 0 0 0-19.100444-19.242666 19.171556 19.171556 0 0 0-19.100445 19.242666A19.171556 19.171556 0 0 0 517.770667 1024zM283.872 906.289778a19.171556 19.171556 0 0 0 19.100444-19.242667 19.171556 19.171556 0 0 0-19.100444-19.242667 19.171556 19.171556 0 0 0-19.100444 19.242667 19.171556 19.171556 0 0 0 19.100444 19.242667zM101.756444 790.264889a19.171556 19.171556 0 0 0 19.100445-19.242667 19.171556 19.171556 0 0 0-19.100445-19.249778 19.171556 19.171556 0 0 0-19.100444 19.249778 19.171556 19.171556 0 0 0 19.100444 19.242667z m821.731556-285.674667c-20.565333 0-37.226667 16.810667-37.226667 37.546667 0 20.728889 16.661333 37.546667 37.226667 37.546667 20.565333 0 37.226667-16.817778 37.226667-37.546667 0-20.736-16.661333-37.546667-37.226667-37.546667zM741.400889 630.705778c-20.565333 0-37.233778 16.810667-37.233778 37.546666 0 20.728889 16.668444 37.546667 37.233778 37.546667s37.226667-16.817778 37.226667-37.546667c0-20.736-16.661333-37.546667-37.226667-37.546666z m-223.872 127.793778c-20.565333 0-37.233778 16.817778-37.233778 37.546666s16.668444 37.546667 37.233778 37.546667c20.558222 0 37.226667-16.817778 37.226667-37.546667s-16.668444-37.546667-37.226667-37.546666zM283.623111 634.069333c-20.565333 0-37.226667 16.810667-37.226667 37.546667 0 20.728889 16.661333 37.546667 37.226667 37.546667 20.565333 0 37.226667-16.817778 37.226667-37.546667 0-20.736-16.661333-37.546667-37.226667-37.546667zM101.514667 504.590222c-20.558222 0-37.226667 16.810667-37.226667 37.546667 0 20.728889 16.668444 37.546667 37.226667 37.546667 20.565333 0 37.233778-16.817778 37.233777-37.546667 0-20.736-16.668444-37.546667-37.233777-37.546667z m821.475555-264.128c-34.197333 0-61.902222 27.946667-61.902222 62.414222 0 34.467556 27.704889 62.414222 61.895111 62.414223 34.190222 0 61.902222-27.946667 61.902222-62.414223 0-34.467556-27.712-62.414222-61.902222-62.414222z m-182.115555 117.710222c-34.183111 0-61.895111 27.946667-61.895111 62.414223 0 34.467556 27.712 62.414222 61.902222 62.414222s61.895111-27.946667 61.895111-62.414222c0-34.467556-27.704889-62.414222-61.895111-62.414223z m0-240.462222c-34.183111 0-61.895111 27.946667-61.895111 62.414222 0 34.467556 27.712 62.414222 61.902222 62.414223s61.895111-27.946667 61.895111-62.414223c0-34.467556-27.704889-62.414222-61.895111-62.414222zM517.016889 242.133333c-34.190222 0-61.902222 27.946667-61.902222 62.421334 0 34.467556 27.712 62.414222 61.902222 62.414222s61.895111-27.946667 61.895111-62.414222c0-34.467556-27.704889-62.421333-61.895111-62.421334z m0-242.140444C482.819556 0 455.107556 27.946667 455.107556 62.414222c0 34.467556 27.712 62.421333 61.902222 62.421334s61.895111-27.946667 61.895111-62.421334C578.912 27.946667 551.2 0 517.009778 0zM284.782222 116.024889c-34.190222 0-61.902222 27.946667-61.902222 62.421333 0 34.467556 27.712 62.414222 61.902222 62.414222s61.902222-27.946667 61.902222-62.414222c0-34.467556-27.712-62.421333-61.902222-62.421333z m232.227556 363.214222c-34.190222 0-61.902222 27.946667-61.902222 62.421333 0 34.467556 27.712 62.414222 61.902222 62.414223s61.895111-27.946667 61.895111-62.414223c0-34.467556-27.704889-62.421333-61.895111-62.421333zM284.782222 359.850667c-34.190222 0-61.902222 27.946667-61.902222 62.414222 0 34.467556 27.712 62.421333 61.902222 62.421333s61.902222-27.946667 61.902222-62.421333c0-34.467556-27.712-62.414222-61.902222-62.414222zM101.009778 242.140444C66.819556 242.140444 39.107556 270.087111 39.107556 304.568889c0 34.467556 27.712 62.414222 61.902222 62.414222s61.895111-27.946667 61.895111-62.414222c0-34.467556-27.704889-62.421333-61.895111-62.421333z" fill="#e6e6e6" p-id="103837"></path></svg>