<?xml version="1.0" standalone="no"?><!DOCTYPE svg PUBLIC "-//W3C//DTD SVG 1.1//EN" "http://www.w3.org/Graphics/SVG/1.1/DTD/svg11.dtd"><svg t="1752561115573" class="icon" viewBox="0 0 1024 1024" version="1.1" xmlns="http://www.w3.org/2000/svg" p-id="11743" xmlns:xlink="http://www.w3.org/1999/xlink" width="128" height="128"><path d="M643.072 674.2016H127.3856c-19.2512 0-34.816-15.5648-34.816-34.816V123.6992c0-19.2512 15.5648-34.816 34.816-34.816H643.072c19.2512 0 34.816 15.5648 34.816 34.816v515.6864c0 19.2512-15.5648 34.816-34.816 34.816zM162.4064 604.3648H608.256V158.72H162.4064v445.6448z" fill="#e6e6e6" p-id="11744"></path><path d="M890.2656 932.0448H374.784c-19.2512 0-34.816-15.5648-34.816-34.816V381.5424c0-19.2512 15.5648-34.816 34.816-34.816h515.6864c19.2512 0 34.816 15.5648 34.816 34.816v515.6864c0 19.2512-15.7696 34.816-35.0208 34.816zM409.6 862.208h445.8496V416.3584H409.6V862.208z" fill="#e6e6e6" p-id="11745"></path><path d="M911.36 953.344c-9.0112 0-18.0224-3.4816-24.7808-10.4448L81.5104 126.976c-13.5168-13.7216-13.312-35.84 0.4096-49.3568 13.7216-13.5168 35.84-13.312 49.3568 0.4096l804.864 816.128c13.5168 13.7216 13.312 35.84-0.4096 49.3568-6.7584 6.5536-15.5648 9.8304-24.3712 9.8304z" fill="#e6e6e6" p-id="11746"></path></svg>