<?xml version="1.0" standalone="no"?><!DOCTYPE svg PUBLIC "-//W3C//DTD SVG 1.1//EN" "http://www.w3.org/Graphics/SVG/1.1/DTD/svg11.dtd"><svg t="1741931383037" class="icon" viewBox="0 0 1024 1024" version="1.1" xmlns="http://www.w3.org/2000/svg" p-id="10481" xmlns:xlink="http://www.w3.org/1999/xlink" width="128" height="128"><path d="M511.461053 40.353684c-273.960421 0-466.229895 216.589474-466.229895 466.216421 0 249.667368 200.811789 466.216421 466.216421 466.216421 265.431579 0 466.216421-218.893474 466.216421-466.216421 0-247.322947-192.269474-466.216421-466.216421-466.216421z m0 853.989053c-213.840842 0-387.772632-173.972211-387.772632-387.772632 0-213.827368 173.931789-387.772632 387.772632-387.772631 213.786947 0 387.772632 173.945263 387.772631 387.772631 0 213.800421-173.985684 387.772632-387.772631 387.772632z" p-id="10482" fill="#dbdbdb"></path><path d="M511.434105 281.411368c-124.133053 0-225.145263 100.998737-225.145263 225.145264 0 124.133053 100.998737 225.131789 225.145263 225.131789s225.145263-100.998737 225.145263-225.145263c0-124.133053-100.998737-225.145263-225.145263-225.145263z" p-id="10483" fill="#dbdbdb"></path></svg>