<?xml version="1.0" standalone="no"?><!DOCTYPE svg PUBLIC "-//W3C//DTD SVG 1.1//EN" "http://www.w3.org/Graphics/SVG/1.1/DTD/svg11.dtd"><svg t="1751529316627" class="icon" viewBox="0 0 1024 1024" version="1.1" xmlns="http://www.w3.org/2000/svg" p-id="137853" xmlns:xlink="http://www.w3.org/1999/xlink" width="128" height="128"><path d="M930.33813333 859.8528H90.9312c-19.11466667 0-33.86026667-15.29173333-33.86026667-33.86026666s15.29173333-33.86026667 33.86026667-33.86026667h839.40693333c19.11466667 0 33.86026667 15.29173333 33.86026667 33.86026667s-14.7456 33.86026667-33.86026667 33.86026666zM923.2384 657.23733334c-13.1072-204.25386667-162.74773333-368.09386667-356.07893333-389.9392-184.59306667-20.75306667-358.8096 93.93493333-424.89173334 275.2512l-6.5536-60.07466667c-2.18453333-18.56853333-19.11466667-32.22186667-37.6832-30.03733333-18.56853333 2.18453333-32.22186667 19.11466667-30.03733333 37.6832l23.48373333 210.26133333 199.33866667-95.57333333c16.93013333-8.192 24.02986667-28.39893333 15.83786667-45.32906667-8.192-16.93013333-28.39893333-24.02986667-45.32906667-15.83786667l-56.79786667 27.30666667c54.0672-154.55573333 200.97706667-252.3136 354.98666667-235.38346667 160.01706667 18.0224 284.53546667 155.648 295.45813333 326.58773334 1.09226667 18.0224 16.384 31.67573333 33.86026667 31.67573333h2.18453333c19.11466667-1.6384 33.31413333-18.0224 32.22186667-36.59093333z" fill="#e6e6e6" p-id="137854"></path></svg>