<?xml version="1.0" standalone="no"?><!DOCTYPE svg PUBLIC "-//W3C//DTD SVG 1.1//EN" "http://www.w3.org/Graphics/SVG/1.1/DTD/svg11.dtd"><svg t="1751527401142" class="icon" viewBox="0 0 1024 1024" version="1.1" xmlns="http://www.w3.org/2000/svg" p-id="105538" xmlns:xlink="http://www.w3.org/1999/xlink" width="128" height="128"><path d="M743.849057 0h-463.698114C242.861887 0 212.528302 30.333585 212.528302 67.622642v888.754716C212.528302 993.666415 242.861887 1024 280.150943 1024h463.698114c37.289057 0 67.622642-30.333585 67.622641-67.622642v-888.754716C811.471698 30.333585 781.138113 0 743.849057 0z m9.660377 956.377358c0 5.409811-4.250566 9.660377-9.660377 9.660378h-463.698114c-5.409811 0-9.660377-4.250566-9.660377-9.660378v-99.115471h204.993208c16.036226 0 28.981132-12.944906 28.981132-28.981132s-12.944906-28.981132-28.981132-28.981132H270.490566v-96.603774h89.068679c16.036226 0 28.981132-12.944906 28.981132-28.981132s-12.944906-28.981132-28.981132-28.981132H270.490566v-96.603774h204.993208c16.036226 0 28.981132-12.944906 28.981132-28.981132s-12.944906-28.981132-28.981132-28.981132H270.490566v-96.603773h89.068679c16.036226 0 28.981132-12.944906 28.981132-28.981132s-12.944906-28.981132-28.981132-28.981133H270.490566v-96.603773h204.993208c16.036226 0 28.981132-12.944906 28.981132-28.981132s-12.944906-28.981132-28.981132-28.981132H270.490566V67.622642c0-5.409811 4.250566-9.660377 9.660377-9.660378h463.698114c5.409811 0 9.660377 4.250566 9.660377 9.660378v888.754716z" fill="#e6e6e6" p-id="105539"></path></svg>