<?xml version="1.0" standalone="no"?><!DOCTYPE svg PUBLIC "-//W3C//DTD SVG 1.1//EN" "http://www.w3.org/Graphics/SVG/1.1/DTD/svg11.dtd"><svg t="1740573852535" class="icon" viewBox="0 0 1024 1024" version="1.1" xmlns="http://www.w3.org/2000/svg" p-id="79649" xmlns:xlink="http://www.w3.org/1999/xlink" width="128" height="128"><path d="M510.304 32C776.416 32 992 246.816 992 512c0 265.184-215.584 480-481.696 480C244.224 988.64 32 773.824 32 508.64S244.224 32 510.304 32z" fill="#E0E0E0" p-id="79650"></path><path d="M510.4 64C758.816 64 960 264.512 960 512s-201.216 448-449.6 448C262.08 956.864 64 756.352 64 508.864 64 261.376 262.08 64 510.4 64z" fill="#FFFFFF" p-id="79651"></path><path d="M512 96c231.104 0 416 184.896 416 416s-184.896 416-416 416S96 743.104 96 512 280.896 96 512 96z" fill="#68AE05" p-id="79652"></path><path d="M740.8 268.8v-0.48H287.52c-16.768 0-30.336 15.36-30.336 34.24v349.952c0 18.912 13.6 34.272 30.336 34.272v1.92h180.416v33.696c0 2.08 0.32 4.032 0.64 6.016h-27.2c-29.12 0-53.12 21.568-56.48 49.44h254.08a56.64 56.64 0 0 0-56.448-49.44h-27.168c0.288-1.984 0.64-3.936 0.64-6.016v-33.728h184.736v-2.368c14.656-2.4 26.016-16.576 26.016-33.792V302.592c0-17.28-11.36-31.36-26.016-33.792zM512 689.92a16.576 16.576 0 0 1-16.704-16.48c0-9.088 7.456-16.448 16.672-16.448 9.248 0 16.736 7.36 16.736 16.448a16.608 16.608 0 0 1-16.736 16.48z m223.104-88.48c0 13.504-9.888 24.576-22.752 26.464v1.856h-192.96a43.936 43.936 0 0 0-7.424-0.736c-2.528 0-4.992 0.32-7.36 0.736H315.392v-1.504a26.688 26.688 0 0 1-26.56-26.816v-268.384c0-14.816 11.904-26.848 26.56-26.848h396.928v0.384a26.688 26.688 0 0 1 22.784 26.432v268.416z" fill="#FFFFFF" p-id="79653"></path></svg>