<?xml version="1.0" standalone="no"?><!DOCTYPE svg PUBLIC "-//W3C//DTD SVG 1.1//EN" "http://www.w3.org/Graphics/SVG/1.1/DTD/svg11.dtd"><svg t="1752115965267" class="icon" viewBox="0 0 1331 1024" version="1.1" xmlns="http://www.w3.org/2000/svg" p-id="4087" xmlns:xlink="http://www.w3.org/1999/xlink" width="166.375" height="128"><path d="M664.832 0c51.4048 0 94.5664 36.7104 100.1984 85.1968a9.216 9.216 0 0 1 0 5.632c134.2464 38.912 227.1744 154.112 232.448 286.3104l0.256 12.4416v207.6672l99.584 151.9104c7.8848 12.5952 12.032 26.9312 12.032 41.5744-0.3072 40.448-33.0752 73.5232-74.752 77.056l-7.424 0.3072h-197.376c0 86.1184-73.5744 155.904-164.352 155.904-87.6544 0-159.2832-65.024-164.096-147.0464l-0.256-8.8576H303.7184a88.6784 88.6784 0 0 1-43.2128-11.3664c-36.096-21.6064-48.64-65.3312-30.208-100.9664l3.84-6.6048 99.584-152.4736V389.0176c-0.4096-132.608 87.7056-250.368 218.5216-294.2464l12.3904-3.8912v-5.6832C570.2656 36.7104 613.4272 0 664.832 0z m20.8384 258.7648l-166.9632 242.5856c-2.7648 3.9424 0.4096 9.1648 5.4784 9.1648h133.8368c3.9424 0 7.0656 3.2256 6.4 6.8608l-30.6688 170.496c-1.1776 6.4 7.9872 9.6768 11.776 4.2496l166.9632-242.5856c2.7648-3.9936-0.4096-9.216-5.4784-9.216h-133.8368c-3.9424 0-7.0656-3.2256-6.4-6.8608l30.6688-170.496c1.1776-6.4-7.9872-9.6256-11.776-4.1984zM175.0016 9.472c11.4688 2.9696 20.48 11.5712 23.552 22.6304a31.1808 31.1808 0 0 1-8.6016 30.9248c-40.6016 39.0656-71.168 88.064-91.8528 147.5584C77.2096 271.0016 66.56 342.3744 66.56 424.448a32.6656 32.6656 0 0 1-33.28 32A32.6656 32.6656 0 0 1 0 424.448c0-88.6272 11.5712-166.656 35.0208-234.0864C58.7776 121.7024 94.72 64 142.848 17.7664a34.2016 34.2016 0 0 1 32.1536-8.3456zM1188.352 17.8176c48.128 46.2336 84.0704 103.936 107.8272 172.544 23.4496 67.4304 35.0208 145.408 35.0208 234.0864a32.6656 32.6656 0 0 1-33.28 32 32.6656 32.6656 0 0 1-33.28-32c0-82.1248-10.6496-153.3952-31.5392-213.8624-20.6336-59.4944-51.2512-108.544-91.8528-147.5584a31.1296 31.1296 0 0 1 0-45.2608 34.2528 34.2528 0 0 1 47.104 0zM327.3728 150.8864a31.232 31.232 0 0 1-9.6256 44.288c-28.0576 17.7152-50.0224 44.544-66.048 81.5616-16.2816 37.4272-22.0672 85.76-16.896 145.0496a32.4096 32.4096 0 0 1-30.3616 34.56 32.9216 32.9216 0 0 1-35.9936-29.184c-5.9904-68.8128 1.024-127.1808 21.76-175.104 20.9408-48.2816 51.2512-85.4016 91.0848-110.4384 15.36-9.6768 35.9936-5.5296 46.08 9.216z m722.5344-9.216c39.7312 24.9856 70.144 62.1056 91.0848 110.4384 20.736 47.872 27.7504 106.24 21.76 175.0016a32.9216 32.9216 0 0 1-35.9936 29.2352 32.4096 32.4096 0 0 1-30.3616-34.56c5.1712-59.2896-0.6144-107.52-16.896-145.0496-15.9232-37.0176-37.9904-63.8464-66.048-81.5616a31.6416 31.6416 0 0 1-15.0016-28.5696 32 32 0 0 1 18.2272-26.7776 34.4576 34.4576 0 0 1 33.28 1.792z" fill="#e6e6e6" p-id="4088"></path></svg>