<?xml version="1.0" standalone="no"?><!DOCTYPE svg PUBLIC "-//W3C//DTD SVG 1.1//EN" "http://www.w3.org/Graphics/SVG/1.1/DTD/svg11.dtd"><svg t="1750410841639" class="icon" viewBox="0 0 1024 1024" version="1.1" xmlns="http://www.w3.org/2000/svg" p-id="26529" xmlns:xlink="http://www.w3.org/1999/xlink" width="128" height="128"><path d="M876.3 2H147.7C67.2 2 2 67.2 2 147.7v728.6C2 956.8 67.2 1022 147.7 1022h728.6c80.5 0 145.7-65.2 145.7-145.7V147.7C1022 67.2 956.8 2 876.3 2z m72.8 874.3c0 40.2-32.6 72.9-72.9 72.9H147.7c-40.2 0-72.9-32.6-72.9-72.9V147.7c0-40.2 32.6-72.9 72.9-72.9h728.6c40.2 0 72.9 32.6 72.9 72.9v728.6z" fill="#999999" p-id="26530"></path></svg>