<?xml version="1.0" standalone="no"?><!DOCTYPE svg PUBLIC "-//W3C//DTD SVG 1.1//EN" "http://www.w3.org/Graphics/SVG/1.1/DTD/svg11.dtd"><svg t="1751526478049" class="icon" viewBox="0 0 1024 1024" version="1.1" xmlns="http://www.w3.org/2000/svg" p-id="73264" xmlns:xlink="http://www.w3.org/1999/xlink" width="128" height="128"><path d="M844.288 764.928l-89.6-105.984a7.68 7.68 0 0 0-12.288 0l-89.6 105.984c-4.608 5.632-0.512 13.824 6.656 13.824h42.496v132.608c0 6.144 5.12 10.752 10.752 10.752h68.608c6.144 0 10.752-5.12 10.752-10.752v-132.608h45.568c7.168 0.512 11.264-8.192 6.656-13.824zM113.664 336.384l181.76 95.744 217.088 114.688 14.848-7.68h0.512l383.488-202.752c6.656-3.584 10.752-10.752 10.752-18.432a19.968 19.968 0 0 0-11.264-17.92l-384-192.512a32.512 32.512 0 0 0-29.184 0l-384 192.512c-6.656 3.584-11.264 10.24-11.264 17.92 0.512 7.68 4.608 14.848 11.264 18.432z m271.36 65.024c-18.944 0-34.304-12.288-34.304-27.648s14.848-27.648 34.304-27.648c2.56 0 5.12 0.512 7.168 1.024l82.432-44.544c0.512-14.848 15.36-26.624 33.792-26.624 18.944 0 34.304 12.288 34.304 27.648 0 15.36-14.848 27.648-34.304 27.648-3.584 0-7.168-1.024-10.752-1.536l-78.848 42.496c0 0.512 0.512 0.512 0.512 1.024 0 15.872-15.36 28.16-34.304 28.16z m377.856-116.736c18.944 0 34.304 12.288 34.304 27.648 0 15.36-14.848 27.648-34.304 27.648-4.096 0-7.68-1.024-11.264-2.048-0.512 0.512-0.512 1.536-1.536 2.048l-90.624 49.664c-2.56 1.536-5.632 2.048-8.192 2.048a16.896 16.896 0 0 1-15.36-9.216 17.8176 17.8176 0 0 1 7.168-24.064l86.528-47.616c-0.512-14.336 14.336-26.112 33.28-26.112z m-126.464-26.112c0-15.36 14.848-27.648 34.304-27.648 18.944 0 34.304 12.288 34.304 27.648s-15.36 28.16-34.816 28.16c-3.072 0-6.144-1.024-9.216-1.536l-48.128 25.088-36.352 106.496-52.224 29.696v1.024c0 15.36-14.848 27.648-34.304 27.648-18.944 0-34.304-12.288-34.304-27.648 0-15.36 14.848-27.648 34.304-27.648 3.072 0 5.12 0.512 7.68 1.024l49.664-28.16 36.864-107.008 52.224-27.136z m-370.688 16.384c3.584 0 6.144 1.024 9.216 1.536l-0.512-1.536 100.352-51.712h87.552l45.568-24.576c0-0.512-0.512-1.024-0.512-2.048 0-15.36 14.848-27.648 34.304-27.648s34.304 12.288 34.304 27.648c0 15.36-14.848 27.648-34.304 27.648-2.048 0-4.096-0.512-6.144-1.024l-68.608 35.328H379.392l-79.872 43.008c0 0.512 0.512 0.512 0.512 1.024 0 15.36-14.848 27.648-34.304 27.648-18.944 0-34.304-12.288-34.304-27.648 0-15.36 14.848-27.648 34.304-27.648z" p-id="73265" fill="#e6e6e6"></path><path d="M775.68 577.024c11.264 0 22.016 1.536 32.768 3.072l102.912-54.272 3.584-2.56c5.12-4.608 7.68-11.264 6.656-17.92a22.1184 22.1184 0 0 0-10.752-15.872l-99.84-50.176-298.496 157.696-298.496-157.184-99.84 50.176-4.096 2.048c-5.12 4.608-7.68 11.264-7.168 17.92 0.512 6.656 4.608 12.8 10.752 15.872l383.488 202.752 5.632 2.56c8.192 2.56 16.896 1.536 24.576-2.56l65.024-34.304c32.768-69.12 101.888-117.248 183.296-117.248z" p-id="73266" fill="#e6e6e6"></path><path d="M572.928 780.8c0-9.216 1.536-18.432 2.56-27.136l-62.976 33.28-298.496-157.184-99.84 50.176-4.096 2.56c-5.12 4.608-7.68 11.264-7.168 17.92 0.512 6.656 4.608 12.8 10.752 15.872l383.488 202.752 5.632 2.56c8.192 2.56 16.896 1.536 24.576-2.56l72.192-38.4c-16.384-29.696-26.624-62.976-26.624-99.84z" p-id="73267" fill="#e6e6e6"></path></svg>