<?xml version="1.0" standalone="no"?><!DOCTYPE svg PUBLIC "-//W3C//DTD SVG 1.1//EN" "http://www.w3.org/Graphics/SVG/1.1/DTD/svg11.dtd"><svg t="1751530292635" class="icon" viewBox="0 0 1024 1024" version="1.1" xmlns="http://www.w3.org/2000/svg" p-id="166710" xmlns:xlink="http://www.w3.org/1999/xlink" width="128" height="128"><path d="M512 85.333333c-12.522667 0-24.874667 2.730667-36.224 7.978667a85.205333 85.205333 0 0 0-29.376 22.421333 83.434667 83.434667 0 0 0-18.304 69.312l27.029333 441.386667C455.125333 654.549333 480.597333 682.666667 512 682.666667c31.424 0 56.917333-28.117333 56.917333-56.234667l27.008-441.386667a83.562667 83.562667 0 0 0-18.346666-69.269333 85.354667 85.354667 0 0 0-29.354667-22.421333A86.293333 86.293333 0 0 0 512 85.333333zM208.917333 717.248a21.333333 21.333333 0 0 0 30.165334 0l30.165333-30.165333a21.333333 21.333333 0 0 0 0-30.165334l-129.813333-129.834666a21.333333 21.333333 0 0 1 0-30.165334l129.813333-129.834666a21.333333 21.333333 0 0 0 0-30.165334l-30.165333-30.165333a21.333333 21.333333 0 0 0-30.165334 0L18.752 496.917333a21.333333 21.333333 0 0 0 0 30.165334l190.165333 190.165333zM815.082667 717.248a21.333333 21.333333 0 0 1-30.165334 0l-30.165333-30.165333a21.333333 21.333333 0 0 1 0-30.165334l129.834667-129.834666a21.333333 21.333333 0 0 0 0-30.165334l-129.834667-129.834666a21.333333 21.333333 0 0 1 0-30.165334l30.165333-30.165333a21.333333 21.333333 0 0 1 30.165334 0l190.165333 190.165333a21.333333 21.333333 0 0 1 0 30.165334l-190.165333 190.165333zM512 917.333333a64 64 0 1 0 0-128 64 64 0 0 0 0 128z" fill="#e6e6e6" p-id="166711"></path></svg>