<?xml version="1.0" standalone="no"?><!DOCTYPE svg PUBLIC "-//W3C//DTD SVG 1.1//EN" "http://www.w3.org/Graphics/SVG/1.1/DTD/svg11.dtd"><svg t="1741850655809" class="icon" viewBox="0 0 1024 1024" version="1.1" xmlns="http://www.w3.org/2000/svg" p-id="11534" xmlns:xlink="http://www.w3.org/1999/xlink" width="128" height="128"><path d="M857.7 893.2H166.3c-22 0-40 18-40 40s18 40 40 40h691.4c22 0 40-18 40-40s-18-40-40-40zM240.4 841.6h543.1V519.9c0-75.3-28.2-146.1-79.5-199.3-51.3-53.2-119.5-82.6-192-82.6s-140.7 29.3-192 82.6c-51.3 53.2-79.5 124-79.5 199.3v321.7z m148.1-365.2L576.3 339c9.8-6.9 24.5 1.6 19.6 11.4l-77.6 122c-1.7 3.3 7.7 9.5 10.3 12.3l109.6 112.6c4.4 4.7 2.9 11.5-3.3 14.6L411.3 749.1c-11.5 5.8-24.5-5.4-16.7-14.3l110.1-133c3.3-3.8 3-9-0.9-12.5l-116.4-98.6c-4.6-4.2-4.1-10.6 1.1-14.3zM512 187.8c22.1 0 40-17.9 40-40v-57c0-22.1-17.9-40-40-40s-40 17.9-40 40v56.9c0 22.2 17.9 40.1 40 40.1zM192.4 305.8c14.9 16.3 40.3 17.3 56.5 2.4 16.3-14.9 17.3-40.3 2.4-56.5l-38.5-41.9c-14.9-16.3-40.3-17.3-56.5-2.4-16.3 14.9-17.3 40.3-2.4 56.5l38.5 41.9zM771.4 301.5c14.9 16.3 40.2 17.5 56.5 2.6l42-38.4c16.3-14.9 17.5-40.2 2.6-56.5-14.9-16.3-40.2-17.5-56.5-2.6L774 245c-16.3 14.9-17.5 40.2-2.6 56.5z" fill="#f4ea2a" p-id="11535"></path></svg>